# Blender 3.5.0
# www.blender.org
mtllib window.mtl
o Glass_Square
v 1.529907 5.375074 -0.590735
v 1.529907 5.375074 -0.076856
v 2.017819 5.375074 -0.590735
v 2.017819 5.375074 -0.076856
v 2.017819 5.375074 -0.590735
v 2.017819 5.375074 -0.076856
v 2.017819 5.471763 -0.590735
v 2.017819 5.471763 -0.076856
v 2.017819 5.471763 -0.590735
v 2.017819 5.471763 -0.076856
v 1.529907 5.471763 -0.590735
v 1.529907 5.471763 -0.076856
v 1.529907 5.471763 -0.590735
v 1.529907 5.471763 -0.076856
v 1.529907 5.375074 -0.590735
v 1.529907 5.375074 -0.076856
v 1.529907 5.375074 -0.590735
v 2.017819 5.375074 -0.590735
v 2.017819 5.471763 -0.590735
v 1.529907 5.471763 -0.590735
v 1.529907 5.375074 -0.076856
v 2.017819 5.375074 -0.076856
v 2.017819 5.471763 -0.076856
v 1.529907 5.471763 -0.076856
vn -0.0000 -1.0000 -0.0000
vn 1.0000 -0.0000 -0.0000
vn -0.0000 1.0000 -0.0000
vn -1.0000 -0.0000 -0.0000
vn -0.0000 -0.0000 -1.0000
vn -0.0000 -0.0000 1.0000
vt 0.000000 0.000000
vt 0.000000 0.505208
vt 0.242718 0.000000
vt 0.242718 0.505208
vt 0.242718 0.000000
vt 0.242718 0.505208
vt 0.500000 0.000000
vt 0.500000 0.505208
vt 0.500000 0.000000
vt 0.500000 0.505208
vt 0.742718 0.000000
vt 0.742718 0.505208
vt 0.742718 0.000000
vt 0.742718 0.505208
vt 1.000000 0.000000
vt 1.000000 0.505208
vt 0.261307 1.000000
vt 0.261307 0.505209
vt 0.000000 0.505209
vt 0.000000 1.000000
vt 1.000000 0.505209
vt 1.000000 1.000000
vt 0.738693 1.000000
vt 0.738693 0.505209
s 0
usemtl Default
f 3/3/1 2/2/1 1/1/1
f 7/7/2 6/6/2 5/5/2
f 11/11/3 10/10/3 9/9/3
f 15/15/4 14/14/4 13/13/4
f 18/18/5 17/17/5 20/20/5
f 20/20/5 19/19/5 18/18/5
f 22/22/6 24/24/6 21/21/6
f 24/24/6 22/22/6 23/23/6
f 3/3/1 4/4/1 2/2/1
f 7/7/2 8/8/2 6/6/2
f 11/11/3 12/12/3 10/10/3
f 15/15/4 16/16/4 14/14/4
o Glass_Square.001
v 0.927002 5.398537 -0.018763
v 0.927002 5.398537 0.495116
v 1.414914 5.398537 -0.018763
v 1.414914 5.398537 0.495116
v 1.414914 5.398537 -0.018763
v 1.414914 5.398537 0.495116
v 1.414914 5.495225 -0.018763
v 1.414914 5.495225 0.495116
v 1.414914 5.495225 -0.018763
v 1.414914 5.495225 0.495116
v 0.927002 5.495225 -0.018763
v 0.927002 5.495225 0.495116
v 0.927002 5.495225 -0.018763
v 0.927002 5.495225 0.495116
v 0.927002 5.398537 -0.018763
v 0.927002 5.398537 0.495116
v 0.927002 5.398537 -0.018763
v 1.414914 5.398537 -0.018763
v 1.414914 5.495225 -0.018763
v 0.927002 5.495225 -0.018763
v 0.927002 5.398537 0.495116
v 1.414914 5.398537 0.495116
v 1.414914 5.495225 0.495116
v 0.927002 5.495225 0.495116
vn -0.0000 -1.0000 -0.0000
vn 1.0000 -0.0000 -0.0000
vn -0.0000 1.0000 -0.0000
vn -1.0000 -0.0000 -0.0000
vn -0.0000 -0.0000 -1.0000
vn -0.0000 -0.0000 1.0000
vt 0.000000 0.000000
vt 0.000000 0.505208
vt 0.242718 0.000000
vt 0.242718 0.505208
vt 0.242718 0.000000
vt 0.242718 0.505208
vt 0.500000 0.000000
vt 0.500000 0.505208
vt 0.500000 0.000000
vt 0.500000 0.505208
vt 0.742718 0.000000
vt 0.742718 0.505208
vt 0.742718 0.000000
vt 0.742718 0.505208
vt 1.000000 0.000000
vt 1.000000 0.505208
vt 0.261307 1.000000
vt 0.261307 0.505209
vt 0.000000 0.505209
vt 0.000000 1.000000
vt 1.000000 0.505209
vt 1.000000 1.000000
vt 0.738693 1.000000
vt 0.738693 0.505209
s 0
usemtl Default.006
f 27/27/7 26/26/7 25/25/7
f 31/31/8 30/30/8 29/29/8
f 35/35/9 34/34/9 33/33/9
f 39/39/10 38/38/10 37/37/10
f 42/42/11 41/41/11 44/44/11
f 44/44/11 43/43/11 42/42/11
f 46/46/12 48/48/12 45/45/12
f 48/48/12 46/46/12 47/47/12
f 27/27/7 28/28/7 26/26/7
f 31/31/8 32/32/8 30/30/8
f 35/35/9 36/36/9 34/34/9
f 39/39/10 40/40/10 38/38/10
o Glass_Square.002
v 0.926741 5.373321 -0.591541
v 0.926741 5.373321 -0.077662
v 1.414653 5.373321 -0.591541
v 1.414653 5.373321 -0.077662
v 1.414653 5.373321 -0.591541
v 1.414653 5.373321 -0.077662
v 1.414653 5.470010 -0.591541
v 1.414653 5.470010 -0.077662
v 1.414653 5.470010 -0.591541
v 1.414653 5.470010 -0.077662
v 0.926741 5.470010 -0.591541
v 0.926741 5.470010 -0.077662
v 0.926741 5.470010 -0.591541
v 0.926741 5.470010 -0.077662
v 0.926741 5.373321 -0.591541
v 0.926741 5.373321 -0.077662
v 0.926741 5.373321 -0.591541
v 1.414653 5.373321 -0.591541
v 1.414653 5.470010 -0.591541
v 0.926741 5.470010 -0.591541
v 0.926741 5.373321 -0.077662
v 1.414653 5.373321 -0.077662
v 1.414653 5.470010 -0.077662
v 0.926741 5.470010 -0.077662
vn -0.0000 -1.0000 -0.0000
vn 1.0000 -0.0000 -0.0000
vn -0.0000 1.0000 -0.0000
vn -1.0000 -0.0000 -0.0000
vn -0.0000 -0.0000 -1.0000
vn -0.0000 -0.0000 1.0000
vt 0.000000 0.000000
vt 0.000000 0.505208
vt 0.242718 0.000000
vt 0.242718 0.505208
vt 0.242718 0.000000
vt 0.242718 0.505208
vt 0.500000 0.000000
vt 0.500000 0.505208
vt 0.500000 0.000000
vt 0.500000 0.505208
vt 0.742718 0.000000
vt 0.742718 0.505208
vt 0.742718 0.000000
vt 0.742718 0.505208
vt 1.000000 0.000000
vt 1.000000 0.505208
vt 0.261307 1.000000
vt 0.261307 0.505209
vt 0.000000 0.505209
vt 0.000000 1.000000
vt 1.000000 0.505209
vt 1.000000 1.000000
vt 0.738693 1.000000
vt 0.738693 0.505209
s 0
usemtl Default.005
f 51/51/13 50/50/13 49/49/13
f 55/55/14 54/54/14 53/53/14
f 59/59/15 58/58/15 57/57/15
f 63/63/16 62/62/16 61/61/16
f 66/66/17 65/65/17 68/68/17
f 68/68/17 67/67/17 66/66/17
f 70/70/18 72/72/18 69/69/18
f 72/72/18 70/70/18 71/71/18
f 51/51/13 52/52/13 50/50/13
f 55/55/14 56/56/14 54/54/14
f 59/59/15 60/60/15 58/58/15
f 63/63/16 64/64/16 62/62/16
o Glass_Square.003
v 1.529668 5.374877 -0.021810
v 1.529668 5.374877 0.492069
v 2.017580 5.374877 -0.021810
v 2.017580 5.374877 0.492069
v 2.017580 5.374877 -0.021810
v 2.017580 5.374877 0.492069
v 2.017580 5.471566 -0.021810
v 2.017580 5.471566 0.492069
v 2.017580 5.471566 -0.021810
v 2.017580 5.471566 0.492069
v 1.529668 5.471566 -0.021810
v 1.529668 5.471566 0.492069
v 1.529668 5.471566 -0.021810
v 1.529668 5.471566 0.492069
v 1.529668 5.374877 -0.021810
v 1.529668 5.374877 0.492069
v 1.529668 5.374877 -0.021810
v 2.017580 5.374877 -0.021810
v 2.017580 5.471566 -0.021810
v 1.529668 5.471566 -0.021810
v 1.529668 5.374877 0.492069
v 2.017580 5.374877 0.492069
v 2.017580 5.471566 0.492069
v 1.529668 5.471566 0.492069
vn -0.0000 -1.0000 -0.0000
vn 1.0000 -0.0000 -0.0000
vn -0.0000 1.0000 -0.0000
vn -1.0000 -0.0000 -0.0000
vn -0.0000 -0.0000 -1.0000
vn -0.0000 -0.0000 1.0000
vt 0.000000 0.000000
vt 0.000000 0.505208
vt 0.242718 0.000000
vt 0.242718 0.505208
vt 0.242718 0.000000
vt 0.242718 0.505208
vt 0.500000 0.000000
vt 0.500000 0.505208
vt 0.500000 0.000000
vt 0.500000 0.505208
vt 0.742718 0.000000
vt 0.742718 0.505208
vt 0.742718 0.000000
vt 0.742718 0.505208
vt 1.000000 0.000000
vt 1.000000 0.505208
vt 0.261307 1.000000
vt 0.261307 0.505209
vt 0.000000 0.505209
vt 0.000000 1.000000
vt 1.000000 0.505209
vt 1.000000 1.000000
vt 0.738693 1.000000
vt 0.738693 0.505209
s 0
usemtl Default.007
f 75/75/19 74/74/19 73/73/19
f 79/79/20 78/78/20 77/77/20
f 83/83/21 82/82/21 81/81/21
f 87/87/22 86/86/22 85/85/22
f 90/90/23 89/89/23 92/92/23
f 92/92/23 91/91/23 90/90/23
f 94/94/24 96/96/24 93/93/24
f 96/96/24 94/94/24 95/95/24
f 75/75/19 76/76/19 74/74/19
f 79/79/20 80/80/20 78/78/20
f 83/83/21 84/84/21 82/82/21
f 87/87/22 88/88/22 86/86/22
